<?xml version="1.0" encoding="UTF-8"?>
<svg version="1.1" xmlns="http://www.w3.org/2000/svg" width="512" height="512">
<path d="M0 0 C1.01790619 0.00215515 2.03581238 0.0043103 3.08456421 0.00653076 C17.69363523 0.05620146 32.02575853 0.30709809 46.375 3.3125 C47.34985352 3.51117676 48.32470703 3.70985352 49.32910156 3.91455078 C97.7109774 14.03517194 141.69928269 35.9516877 177.375 70.3125 C178.3640332 71.26068604 178.3640332 71.26068604 179.37304688 72.22802734 C188.86130305 81.37247479 197.6012044 90.66984009 205.375 101.3125 C206.23306152 102.46355017 207.09113451 103.61459177 207.94921875 104.765625 C213.98736829 112.95680614 219.34595521 121.47054105 224.375 130.3125 C224.73948242 130.94430176 225.10396484 131.57610352 225.47949219 132.22705078 C247.08534998 169.97532572 256.85198095 212.74189997 256.6875 255.9375 C256.68534485 256.95540619 256.6831897 257.97331238 256.68096924 259.02206421 C256.63129854 273.63113523 256.38040191 287.96325853 253.375 302.3125 C253.07698486 303.77478027 253.07698486 303.77478027 252.77294922 305.26660156 C242.65232806 353.6484774 220.7358123 397.63678269 186.375 433.3125 C185.74287598 433.97185547 185.11075195 434.63121094 184.45947266 435.31054688 C175.31502521 444.79880305 166.01765991 453.5387044 155.375 461.3125 C154.22394983 462.17056152 153.07290823 463.02863451 151.921875 463.88671875 C143.73224019 469.92427396 135.22961724 475.30707302 126.375 480.3125 C125.66778809 480.7146875 124.96057617 481.116875 124.23193359 481.53125 C101.09654164 494.5566741 75.92537591 503.30551461 49.9375 508.625 C49.21860596 508.77235596 48.49971191 508.91971191 47.7590332 509.0715332 C33.08339502 511.86090125 18.55831162 512.66142619 3.64770508 512.62817383 C0.70811513 512.6250221 -2.2304558 512.64854926 -5.16992188 512.67382812 C-18.54306192 512.71848737 -31.43916711 511.51301542 -44.625 509.3125 C-46.33055054 509.03031616 -46.33055054 509.03031616 -48.07055664 508.74243164 C-91.33802759 500.97044532 -132.38793216 480.98345309 -165.625 452.3125 C-166.37007813 451.67828125 -167.11515625 451.0440625 -167.8828125 450.390625 C-181.38779833 438.57948485 -194.05918743 425.82889772 -204.625 411.3125 C-205.48149066 410.16255169 -206.33826433 409.01281411 -207.1953125 407.86328125 C-213.23534209 399.67315742 -218.61867614 391.16870382 -223.625 382.3125 C-224.0271875 381.60528809 -224.429375 380.89807617 -224.84375 380.16943359 C-237.8691741 357.03404164 -246.61801461 331.86287591 -251.9375 305.875 C-252.08485596 305.15610596 -252.23221191 304.43721191 -252.3840332 303.6965332 C-255.35789088 288.05024391 -255.99800362 272.57681954 -255.9375 256.6875 C-255.93534485 255.66959381 -255.9331897 254.65168762 -255.93096924 253.60293579 C-255.88129854 238.99386477 -255.63040191 224.66174147 -252.625 210.3125 C-252.42632324 209.33764648 -252.22764648 208.36279297 -252.02294922 207.35839844 C-241.90232806 158.9765226 -219.9858123 114.98821731 -185.625 79.3125 C-184.99287598 78.65314453 -184.36075195 77.99378906 -183.70947266 77.31445312 C-174.56502521 67.82619695 -165.26765991 59.0862956 -154.625 51.3125 C-153.47394983 50.45443848 -152.32290823 49.59636549 -151.171875 48.73828125 C-142.98224019 42.70072604 -134.47961724 37.31792698 -125.625 32.3125 C-124.91778809 31.9103125 -124.21057617 31.508125 -123.48193359 31.09375 C-100.34654164 18.0683259 -75.17537591 9.31948539 -49.1875 4 C-48.46860596 3.85264404 -47.74971191 3.70528809 -47.0090332 3.5534668 C-31.36274391 0.57960912 -15.88931954 -0.06050362 0 0 Z " fill="#C85C75" transform="translate(255.625,-0.3125)"/>
<path d="M0 0 C0.99297014 -0.00445668 0.99297014 -0.00445668 2.00600028 -0.0090034 C4.21720893 -0.01765256 6.4283632 -0.01919549 8.6395874 -0.02069092 C10.22848627 -0.02532213 11.81738404 -0.0303472 13.40628052 -0.03573608 C17.72103745 -0.04884137 22.03577883 -0.05530254 26.35055256 -0.05974674 C29.05281341 -0.06268326 31.75507007 -0.06678937 34.4573288 -0.07125092 C42.93037656 -0.08492702 51.40341468 -0.09459054 59.87647271 -0.09845281 C69.62146116 -0.10292022 79.36630842 -0.12040617 89.11125398 -0.1494534 C96.66400248 -0.17117512 104.21671159 -0.18116281 111.76949096 -0.18249393 C116.26982671 -0.18353539 120.77002978 -0.18930001 125.27033234 -0.20731354 C129.51557368 -0.22397433 133.76058524 -0.22586393 138.00584793 -0.21717453 C139.54999794 -0.21641341 141.09416122 -0.22062196 142.63827896 -0.23063278 C163.64170575 -0.35862833 184.05953093 3.45472453 201.28704834 16.14044189 C202.65603271 17.14204346 202.65603271 17.14204346 204.05267334 18.16387939 C222.42765602 32.38139393 233.17035049 51.94141635 236.85902977 74.62604713 C237.64779249 81.10245673 237.57377695 87.5910766 237.56170654 94.10406494 C237.56606399 95.67429342 237.57125054 97.24451977 237.57719421 98.81474304 C237.59048747 103.04646821 237.59117354 107.27810354 237.58863091 111.5098455 C237.58755416 115.06038645 237.59246269 118.61090974 237.59723634 122.16144687 C237.60829905 130.5495598 237.60878784 138.93762795 237.60272217 147.32574463 C237.59669083 155.93602902 237.6089795 164.54614964 237.63029224 173.1564061 C237.64799655 180.58616213 237.6538956 188.01586646 237.65065449 195.44564277 C237.6488548 199.86649874 237.65134433 204.28723799 237.66536903 208.70807457 C237.67808679 212.87216748 237.67587388 217.03600831 237.66295815 221.20009804 C237.66062244 222.71360999 237.66321657 224.22714047 237.67158127 225.7406311 C237.77864219 246.64769908 233.90780466 267.00114319 221.28704834 284.14044189 C220.28544678 285.50942627 220.28544678 285.50942627 219.26361084 286.90606689 C206.62180113 303.24457909 190.09160954 313.24432278 170.28704834 318.14044189 C169.62808311 318.31429287 168.96911789 318.48814384 168.29018402 318.66726303 C160.18378717 320.56473379 152.06867689 320.42218401 143.79681396 320.39923096 C142.1465591 320.4019454 140.49630546 320.40550887 138.84605408 320.40985107 C134.38947482 320.41892341 129.93298877 320.4154522 125.476408 320.4090929 C120.79792924 320.40400611 116.1194581 320.40873178 111.440979 320.41186523 C103.58643165 320.41549709 95.73192199 320.41072629 87.87738037 320.40118408 C78.81487396 320.39030104 69.75245756 320.39382717 60.68995333 320.40483689 C52.88922754 320.41393203 45.08852874 320.41518417 37.28779936 320.40995955 C32.63745366 320.40685209 27.98715018 320.40639674 23.33680725 320.41303253 C18.96350737 320.41883783 14.59032281 320.41475118 10.21703529 320.40324402 C8.6183472 320.40061439 7.01964929 320.40133326 5.42096519 320.40576935 C-7.94928659 320.43943043 -18.5698253 318.83434804 -30.71295166 313.14044189 C-31.30269775 312.86458252 -31.89244385 312.58872314 -32.50006104 312.30450439 C-53.12374315 302.48163367 -69.45629627 286.35924897 -77.23370361 264.51763916 C-77.6256189 263.37186401 -77.6256189 263.37186401 -78.02545166 262.20294189 C-78.26803711 261.50032227 -78.51062256 260.79770264 -78.76055908 260.0737915 C-82.56872539 248.22930394 -83.01016358 236.16778789 -82.98760986 223.83209229 C-82.99196815 222.23714461 -82.99715497 220.64219903 -83.00309753 219.04725647 C-83.01637724 214.75381077 -83.01707874 210.46045368 -83.01453424 206.16699147 C-83.01345721 202.5664111 -83.01836633 198.96584812 -83.02313966 195.36527151 C-83.0341962 186.86363837 -83.03469371 178.36204943 -83.02862549 169.8604126 C-83.02258547 161.12451248 -83.03490632 152.38877341 -83.05619556 143.65290076 C-83.0738731 136.11871386 -83.07980335 128.58457795 -83.07655782 121.05037111 C-83.07475497 116.56535129 -83.07728068 112.08044644 -83.09127235 107.59544563 C-83.10394723 103.37553694 -83.10181645 99.15587756 -83.08886147 94.93597221 C-83.08651719 93.39862352 -83.089152 91.86125673 -83.09748459 90.32392883 C-83.21805462 66.32574473 -75.62616406 43.85664379 -59.00030518 26.28570557 C-45.78352485 12.9371437 -29.8897528 5.05919196 -11.71295166 1.14044189 C-10.96026127 0.96407825 -10.20757088 0.78771461 -9.43207169 0.60600662 C-6.24642338 0.06056344 -3.23295883 0.00813134 0 0 Z " fill="#C85D74" transform="translate(178.71295166015625,95.85955810546875)"/>
<path d="M0 0 C0.99297014 -0.00445668 0.99297014 -0.00445668 2.00600028 -0.0090034 C4.21720893 -0.01765256 6.4283632 -0.01919549 8.6395874 -0.02069092 C10.22848627 -0.02532213 11.81738404 -0.0303472 13.40628052 -0.03573608 C17.72103745 -0.04884137 22.03577883 -0.05530254 26.35055256 -0.05974674 C29.05281341 -0.06268326 31.75507007 -0.06678937 34.4573288 -0.07125092 C42.93037656 -0.08492702 51.40341468 -0.09459054 59.87647271 -0.09845281 C69.62146116 -0.10292022 79.36630842 -0.12040617 89.11125398 -0.1494534 C96.66400248 -0.17117512 104.21671159 -0.18116281 111.76949096 -0.18249393 C116.26982671 -0.18353539 120.77002978 -0.18930001 125.27033234 -0.20731354 C129.51557368 -0.22397433 133.76058524 -0.22586393 138.00584793 -0.21717453 C139.54999794 -0.21641341 141.09416122 -0.22062196 142.63827896 -0.23063278 C163.64170575 -0.35862833 184.05953093 3.45472453 201.28704834 16.14044189 C202.65603271 17.14204346 202.65603271 17.14204346 204.05267334 18.16387939 C222.42765602 32.38139393 233.17035049 51.94141635 236.85902977 74.62604713 C237.64779249 81.10245673 237.57377695 87.5910766 237.56170654 94.10406494 C237.56606399 95.67429342 237.57125054 97.24451977 237.57719421 98.81474304 C237.59048747 103.04646821 237.59117354 107.27810354 237.58863091 111.5098455 C237.58755416 115.06038645 237.59246269 118.61090974 237.59723634 122.16144687 C237.60829905 130.5495598 237.60878784 138.93762795 237.60272217 147.32574463 C237.59669083 155.93602902 237.6089795 164.54614964 237.63029224 173.1564061 C237.64799655 180.58616213 237.6538956 188.01586646 237.65065449 195.44564277 C237.6488548 199.86649874 237.65134433 204.28723799 237.66536903 208.70807457 C237.67808679 212.87216748 237.67587388 217.03600831 237.66295815 221.20009804 C237.66062244 222.71360999 237.66321657 224.22714047 237.67158127 225.7406311 C237.77864219 246.64769908 233.90780466 267.00114319 221.28704834 284.14044189 C220.28544678 285.50942627 220.28544678 285.50942627 219.26361084 286.90606689 C206.62180113 303.24457909 190.09160954 313.24432278 170.28704834 318.14044189 C169.62808311 318.31429287 168.96911789 318.48814384 168.29018402 318.66726303 C160.18378717 320.56473379 152.06867689 320.42218401 143.79681396 320.39923096 C142.1465591 320.4019454 140.49630546 320.40550887 138.84605408 320.40985107 C134.38947482 320.41892341 129.93298877 320.4154522 125.476408 320.4090929 C120.79792924 320.40400611 116.1194581 320.40873178 111.440979 320.41186523 C103.58643165 320.41549709 95.73192199 320.41072629 87.87738037 320.40118408 C78.81487396 320.39030104 69.75245756 320.39382717 60.68995333 320.40483689 C52.88922754 320.41393203 45.08852874 320.41518417 37.28779936 320.40995955 C32.63745366 320.40685209 27.98715018 320.40639674 23.33680725 320.41303253 C18.96350737 320.41883783 14.59032281 320.41475118 10.21703529 320.40324402 C8.6183472 320.40061439 7.01964929 320.40133326 5.42096519 320.40576935 C-7.94928659 320.43943043 -18.5698253 318.83434804 -30.71295166 313.14044189 C-31.30269775 312.86458252 -31.89244385 312.58872314 -32.50006104 312.30450439 C-53.12374315 302.48163367 -69.45629627 286.35924897 -77.23370361 264.51763916 C-77.6256189 263.37186401 -77.6256189 263.37186401 -78.02545166 262.20294189 C-78.26803711 261.50032227 -78.51062256 260.79770264 -78.76055908 260.0737915 C-82.56872539 248.22930394 -83.01016358 236.16778789 -82.98760986 223.83209229 C-82.99196815 222.23714461 -82.99715497 220.64219903 -83.00309753 219.04725647 C-83.01637724 214.75381077 -83.01707874 210.46045368 -83.01453424 206.16699147 C-83.01345721 202.5664111 -83.01836633 198.96584812 -83.02313966 195.36527151 C-83.0341962 186.86363837 -83.03469371 178.36204943 -83.02862549 169.8604126 C-83.02258547 161.12451248 -83.03490632 152.38877341 -83.05619556 143.65290076 C-83.0738731 136.11871386 -83.07980335 128.58457795 -83.07655782 121.05037111 C-83.07475497 116.56535129 -83.07728068 112.08044644 -83.09127235 107.59544563 C-83.10394723 103.37553694 -83.10181645 99.15587756 -83.08886147 94.93597221 C-83.08651719 93.39862352 -83.089152 91.86125673 -83.09748459 90.32392883 C-83.21805462 66.32574473 -75.62616406 43.85664379 -59.00030518 26.28570557 C-45.78352485 12.9371437 -29.8897528 5.05919196 -11.71295166 1.14044189 C-10.96026127 0.96407825 -10.20757088 0.78771461 -9.43207169 0.60600662 C-6.24642338 0.06056344 -3.23295883 0.00813134 0 0 Z M-43.72076416 49.55450439 C-50.8055617 59.21559196 -55.94716145 70.19124574 -55.9803772 82.31063843 C-55.98490831 82.99756739 -55.98943942 83.68449636 -55.99410784 84.39224136 C-56.00668719 86.67572842 -56.00513569 88.95897498 -56.003479 91.24249268 C-56.00946847 92.887439 -56.01627498 94.53238253 -56.02383423 96.17732239 C-56.04146295 100.63426529 -56.0461884 105.09113132 -56.0474658 109.54810572 C-56.0488902 112.33779219 -56.05316536 115.12745931 -56.05846024 117.91714096 C-56.07695308 127.66443872 -56.08513214 137.41168187 -56.08355713 147.15899658 C-56.08235726 156.21974558 -56.10343104 165.28025579 -56.13504446 174.34094441 C-56.16127521 182.13911237 -56.17192152 189.93720269 -56.17064631 197.73541439 C-56.1701385 202.38429407 -56.17572071 207.03296161 -56.19700241 211.68179703 C-56.2164987 216.06008081 -56.21643222 220.43795265 -56.20196915 224.81625175 C-56.1998937 226.41368531 -56.20450561 228.01114542 -56.21669006 229.60853386 C-56.34971409 248.27286238 -51.02143249 263.86568248 -37.77545166 277.33966064 C-27.14968802 287.48024531 -13.42497042 293.23527114 1.17167664 293.28761292 C1.84000584 293.2912896 2.50833504 293.29496629 3.19691664 293.29875439 C5.42350172 293.30971631 7.65004002 293.3136223 9.87664795 293.31744385 C11.47879176 293.32371438 13.08093414 293.33036169 14.68307495 293.33735657 C19.93517049 293.3583368 25.18726609 293.36875626 30.43939209 293.37872314 C32.25368324 293.38277356 34.06797424 293.38689056 35.88226509 293.39107323 C44.41189987 293.41011503 52.94152607 293.42434577 61.471178 293.4326852 C71.28526781 293.44244112 81.09913111 293.46872183 90.91314119 293.50918609 C98.51853107 293.5394568 106.12385643 293.55416458 113.72930533 293.55746621 C118.26202662 293.55980502 122.79450566 293.56861133 127.32716179 293.59392738 C131.59954304 293.6174045 135.87152591 293.62136353 140.14395523 293.611166 C141.70024131 293.61067519 143.25654834 293.61685898 144.81277275 293.63072205 C163.25558705 293.78563701 179.22064748 289.521441 193.00286865 276.6506958 C204.76626826 265.01473946 210.70534517 249.28154239 210.93835354 232.89640093 C210.94258782 230.68930601 210.92282536 228.48317621 210.90228271 226.27618408 C210.90579516 224.65784119 210.91146629 223.0395018 210.9190979 221.4211731 C210.93318984 217.0782425 210.91644255 212.73595695 210.89281273 208.39308834 C210.87251147 203.82102294 210.87859296 199.24897933 210.88092041 194.67687988 C210.88086707 187.00772632 210.86124233 179.33882101 210.82904053 171.66973877 C210.79210509 162.83089872 210.78337472 153.99238269 210.79033804 145.15347552 C210.79666316 136.60832819 210.78585504 128.06329071 210.76637268 119.51816559 C210.75824505 115.89965487 210.75548048 112.28120065 210.75706482 108.66268158 C210.75794981 104.39755306 210.74356407 100.13272796 210.71783829 95.8676796 C210.710735 94.31176603 210.70856434 92.75582004 210.71195602 91.19989395 C210.74573284 72.03791958 205.84621392 56.57182948 192.16986084 42.80059814 C181.98969209 33.40670259 168.42412778 27.04998267 154.48434448 26.98654175 C153.80068436 26.98215949 153.11702423 26.97777724 152.41264713 26.97326219 C150.12224286 26.9599103 147.83187704 26.95370333 145.54144287 26.9475708 C143.89856291 26.93966661 142.25568466 26.93139746 140.61280823 26.92279053 C135.2151759 26.89659403 129.81753594 26.88125929 124.41986084 26.86700439 C122.55788036 26.86164261 120.69589992 26.8562651 118.83391953 26.85087204 C111.08238712 26.82924149 103.33085677 26.81050907 95.57930183 26.79924965 C84.49451977 26.78304008 73.41008987 26.74993724 62.32544053 26.6928488 C54.51968555 26.6540289 46.71402426 26.6346024 38.90817535 26.62932909 C34.25299626 26.62569039 29.59819299 26.61382899 24.94311905 26.58122635 C20.55498264 26.55093512 16.16744524 26.54490802 11.7792263 26.55661011 C10.17897357 26.55682914 8.57869134 26.54866758 6.97853661 26.53095627 C-13.18010887 26.32019426 -30.64008565 33.82715163 -43.72076416 49.55450439 Z " fill="#FEFDFD" transform="translate(178.71295166015625,95.85955810546875)"/>
<path d="M0 0 C2.71807806 1.93778626 5.33652934 3.95055177 7.93359375 6.046875 C8.578125 6.53929687 9.22265625 7.03171875 9.88671875 7.5390625 C22.74813512 17.79343501 31.08608599 33.29494966 34.93359375 49.046875 C35.10802002 49.71968506 35.28244629 50.39249512 35.4621582 51.08569336 C40.55899578 71.88580769 35.75397809 92.92794448 24.93359375 111.046875 C22.76593722 114.21099237 20.42784177 117.13691897 17.93359375 120.046875 C17.48757813 120.63597656 17.0415625 121.22507812 16.58203125 121.83203125 C5.30024776 136.31361883 -14.17511947 145.21858988 -32.06640625 148.046875 C-56.14427765 150.37901313 -76.50397605 143.53162482 -95.63671875 129.109375 C-110.84532466 116.39137703 -121.40258598 96.22478135 -123.32080078 76.42041016 C-124.60064271 54.25386888 -119.17873745 34.33084352 -105.06640625 17.046875 C-104.57527344 16.40492188 -104.08414063 15.76296875 -103.578125 15.1015625 C-93.27982247 2.1634134 -77.83819346 -5.98067984 -62.06640625 -9.953125 C-60.81472656 -10.30890625 -59.56304687 -10.6646875 -58.2734375 -11.03125 C-39.25619717 -15.72457843 -16.277129 -10.36759809 0 0 Z " fill="#FEFDFD" transform="translate(299.06640625,187.953125)"/>
<path d="M0 0 C13.64086613 8.31801874 22.96432732 20.36887344 27 36 C28.91288414 53.5663092 26.12907515 67.55873157 15.046875 81.640625 C6.48492322 91.50974499 -5.75608356 98.93098432 -19 100 C-35.58748684 101.07016044 -49.43706803 97.61556029 -62.25 86.8125 C-67.22589238 82.08895081 -70.7997453 77.05124303 -74 71 C-74.50789062 70.07058594 -75.01578125 69.14117187 -75.5390625 68.18359375 C-81.04075965 56.39643812 -81.33129264 41.03045495 -76.9375 28.8125 C-76.01933051 26.84536035 -75.04100603 24.9049882 -74 23 C-73.49210938 22.03964844 -72.98421875 21.07929688 -72.4609375 20.08984375 C-64.82241752 6.93059251 -53.8436415 0.54239989 -40.23046875 -5.16015625 C-26.67741084 -8.68362354 -12.10031652 -6.79468192 0 0 Z " fill="#C85D76" transform="translate(282,209)"/>
<path d="M0 0 C4.00521387 2.88747977 7.46370991 6.48991981 9.6875 10.9375 C10.21486173 17.14414192 10.44997482 22.71858332 6.6875 27.9375 C1.87829603 32.75807325 -1.66806859 35.06717608 -8.625 35.25 C-13.70755647 35.18973253 -16.44623329 34.43555083 -20.3125 30.9375 C-25.59466571 25.42504914 -26.67872644 21.15592936 -26.58984375 13.66015625 C-26.05022629 8.36278487 -23.0278411 5.44764806 -19.1875 2.125 C-13.43315849 -2.25330332 -6.82195302 -2.18817361 0 0 Z " fill="#FEFDFE" transform="translate(349.3125,154.0625)"/>
</svg>
