<?xml version="1.0" encoding="UTF-8"?>
<svg version="1.1" xmlns="http://www.w3.org/2000/svg" width="1200" height="1200">
<path d="M0 0 C1.43676199 0.1794088 2.87361434 0.35809516 4.31054688 0.53613281 C73.01474685 9.13531979 139.03386877 29.09965971 201 60 C202.0297998 60.51288574 203.05959961 61.02577148 204.12060547 61.55419922 C243.41932336 81.25574362 280.2980658 105.77524691 314 134 C314.75676025 134.62938477 314.75676025 134.62938477 315.52880859 135.27148438 C323.0571868 141.53560714 330.36754315 147.99079033 337.54248047 154.65576172 C338.94599244 155.95019001 340.36529883 157.22742854 341.78515625 158.50390625 C348.13647937 164.2262125 354.25716539 170.15250185 360.3125 176.1875 C361.06547363 176.93588135 361.81844727 177.6842627 362.59423828 178.45532227 C366.69414407 182.5665688 370.62271248 186.76768441 374.41186523 191.16674805 C376.67135871 193.7749781 379.02293458 196.28738472 381.375 198.8125 C386.49000206 204.35659827 391.28724722 210.10905902 396 216 C396.91076019 217.11905814 397.82225476 218.23751888 398.734375 219.35546875 C424.32457923 250.84383488 446.17534909 285.07929882 465 321 C465.49064941 321.93602051 465.98129883 322.87204102 466.48681641 323.83642578 C488.7436485 366.62020937 504.76032766 412.16497601 516 459 C516.27440918 460.13808105 516.54881836 461.27616211 516.83154297 462.44873047 C521.699097 482.96951949 524.9468918 503.75297666 527.69146729 524.65124512 C527.88676696 526.13799532 528.08435416 527.62444835 528.28509521 529.11047363 C534.23711328 573.31886005 533.79660399 621.80790206 528 666 C527.82050118 667.4352858 527.64181873 668.87067389 527.46386719 670.30615234 C518.652634 740.70018601 497.62932619 807.58240628 466 871 C465.52062988 871.96276855 465.04125977 872.92553711 464.54736328 873.91748047 C445.52146568 911.85280456 421.2304552 947.47605877 394 980 C393.58572754 980.49918945 393.17145508 980.99837891 392.74462891 981.51269531 C386.21225549 989.38250024 379.42881697 996.96777485 372.44677734 1004.43994141 C370.20910053 1006.85282613 368.01628049 1009.3061708 365.8125 1011.75 C361.10029542 1016.89370006 356.23618574 1021.87118962 351.3125 1026.8125 C350.61165283 1027.51793945 349.91080566 1028.22337891 349.1887207 1028.95019531 C345.2022121 1032.92498027 341.11395166 1036.71817381 336.85083008 1040.39428711 C334.23802246 1042.66106401 331.71864106 1045.01732176 329.1875 1047.375 C323.64340173 1052.49000206 317.89094098 1057.28724722 312 1062 C310.88094186 1062.91076019 309.76248112 1063.82225476 308.64453125 1064.734375 C277.15616512 1090.32457923 242.92070118 1112.17534909 207 1131 C206.06397949 1131.49064941 205.12795898 1131.98129883 204.16357422 1132.48681641 C127.0422821 1172.60658857 37.14141406 1196.90785262 -50.109375 1197.203125 C-51.51735973 1197.21014757 -52.92534414 1197.21723438 -54.33332825 1197.22438049 C-58.80555686 1197.24377075 -63.27773358 1197.24881435 -67.75 1197.25 C-68.51200085 1197.25044186 -69.27400169 1197.25088371 -70.05909348 1197.25133896 C-92.84568898 1197.25826886 -115.37119103 1196.94346817 -138 1194 C-139.41524673 1193.82570058 -140.83061576 1193.65239177 -142.24609375 1193.47998047 C-164.05716659 1190.79740902 -185.58239206 1186.90876653 -207 1182 C-207.65166138 1181.85067017 -208.30332275 1181.70134033 -208.97473145 1181.54748535 C-231.12041883 1176.43480296 -252.59046321 1169.57225421 -274 1162 C-274.99670715 1161.64778381 -274.99670715 1161.64778381 -276.0135498 1161.28845215 C-294.86451711 1154.60206348 -313.00696578 1146.72196617 -331 1138 C-332.56790283 1137.24783203 -332.56790283 1137.24783203 -334.16748047 1136.48046875 C-349.5731794 1129.07205017 -364.36644372 1120.82883774 -379 1112 C-379.91410645 1111.4519873 -380.82821289 1110.90397461 -381.77001953 1110.33935547 C-406.48298439 1095.48478743 -429.9417924 1078.57533272 -452 1060 C-453.02841846 1059.14555958 -454.05707794 1058.29140922 -455.0859375 1057.4375 C-461.90155223 1051.75391166 -468.48713431 1045.86512746 -474.97265625 1039.80859375 C-477.4814994 1037.46820262 -480.04306933 1035.19724868 -482.625 1032.9375 C-487.81992372 1028.28175288 -492.74783489 1023.36161379 -497.6875 1018.4375 C-498.49590332 1017.63368896 -499.30430664 1016.82987793 -500.13720703 1016.00170898 C-504.39729812 1011.73066763 -508.50010042 1007.38461187 -512.43383789 1002.8112793 C-514.68418097 1000.2087391 -517.0299538 997.70507963 -519.375 995.1875 C-524.49000206 989.64340173 -529.28724722 983.89094098 -534 978 C-534.91076019 976.88094186 -535.82225476 975.76248112 -536.734375 974.64453125 C-562.32457923 943.15616512 -584.17534909 908.92070118 -603 873 C-603.49064941 872.06397949 -603.98129883 871.12795898 -604.48681641 870.16357422 C-626.7436485 827.37979063 -642.76032766 781.83502399 -654 735 C-654.41161377 733.29287842 -654.41161377 733.29287842 -654.83154297 731.55126953 C-659.69942677 711.02909025 -662.94545562 690.24494813 -665.69146729 669.34552002 C-665.88658462 667.86220369 -666.08414538 666.37920493 -666.28509521 664.89666748 C-672.18789172 621.25211569 -672.16130525 572.71912011 -666.27862549 529.07421875 C-665.97635672 526.82398835 -665.68695291 524.57228335 -665.39794922 522.3203125 C-658.10304487 466.17813599 -643.97677771 410.8432283 -621 359 C-620.3507959 357.53240234 -620.3507959 357.53240234 -619.68847656 356.03515625 C-609.10526669 332.25578915 -597.44789071 309.28950981 -584 287 C-583.4519873 286.08589355 -582.90397461 285.17178711 -582.33935547 284.22998047 C-567.48532197 259.51790489 -550.57798131 236.05496129 -532 214 C-531.13390387 212.95981082 -530.26803127 211.91943551 -529.40234375 210.87890625 C-523.56729245 203.89444822 -517.53772122 197.12489277 -511.34423828 190.45751953 C-510.04980999 189.05400756 -508.77257146 187.63470117 -507.49609375 186.21484375 C-501.7737875 179.86352063 -495.84749815 173.74283461 -489.8125 167.6875 C-489.06411865 166.93452637 -488.3157373 166.18155273 -487.54467773 165.40576172 C-483.4334312 161.30585593 -479.23231559 157.37728752 -474.83325195 153.58813477 C-472.2250219 151.32864129 -469.71261528 148.97706542 -467.1875 146.625 C-461.64340173 141.50999794 -455.89094098 136.71275278 -450 132 C-448.88094186 131.08923981 -447.76248112 130.17774524 -446.64453125 129.265625 C-415.15616512 103.67542077 -380.92070118 81.82465091 -345 63 C-344.06397949 62.50935059 -343.12795898 62.01870117 -342.16357422 61.51318359 C-278.75289028 28.52589665 -208.9026444 8.25160086 -138 0 C-136.82695313 -0.14953125 -135.65390625 -0.2990625 -134.4453125 -0.453125 C-90.82626693 -5.89378015 -43.56688328 -5.69077278 0 0 Z " fill="#FF0000" transform="translate(669,3)"/>
<path d="M0 0 C1.44128265 0.12535126 1.44128265 0.12535126 2.91168213 0.25323486 C9.21525825 0.80299252 15.51475729 1.38718311 21.8125 2 C22.57280518 2.0717746 23.33311035 2.14354919 24.11645508 2.21749878 C51.17094998 4.81702101 80.05354603 10.50131172 101 29 C101.81726563 29.68707031 102.63453125 30.37414062 103.4765625 31.08203125 C143.3797084 65.5000015 143.98499891 127.03656602 147.58437252 175.76391792 C149.77208505 206.1057136 150.41890249 236.29686238 150.26428223 266.70977783 C150.24507817 271.21789 150.24115779 275.72596241 150.23743439 280.23410988 C150.21949874 300.03303979 150.15745501 319.83023006 149.546875 339.62109375 C149.5086261 340.87664566 149.4703772 342.13219757 149.43096924 343.42579651 C149.21003929 349.66952721 148.75296143 355.79895973 148 362 C147.88978555 364.14231927 147.82206473 366.28205053 147.76049805 368.42626953 C146.96817688 394.32642711 143.2939631 420.47957212 139 446 C138.81856445 447.0837793 138.63712891 448.16755859 138.45019531 449.28417969 C134.51816773 472.16573779 127.98796906 491.8659714 113 510 C112.5771875 510.56847656 112.154375 511.13695312 111.71875 511.72265625 C95.02523264 533.25118625 65.82775194 543.13869847 39.9140625 546.55908203 C29.4343429 547.86872513 18.91946765 548.84075214 8.40142822 549.78253174 C6.15411395 549.98604377 3.90780331 550.19797119 1.66162109 550.41357422 C-20.7147512 552.54506885 -43.15078216 553.54569345 -65.60325623 554.46894455 C-67.76715973 554.5580589 -69.93100561 554.64847502 -72.09484863 554.73904419 C-83.72784322 555.22163421 -95.36324793 555.62010166 -107 556 C-108.22617916 556.04052742 -109.45235832 556.08105484 -110.71569443 556.12281036 C-156.60952172 557.63282463 -202.45891831 558.34123239 -248.37699127 558.25794983 C-253.1672396 558.2493603 -257.95748793 558.24490035 -262.7477417 558.24060059 C-346.78753965 558.15735897 -431.22510693 557.41279872 -532.0625 548.0625 C-532.753367 547.97562927 -533.44423401 547.88875854 -534.15603638 547.79925537 C-538.77322253 547.21813577 -543.38704532 546.61392722 -548 546 C-548.96389648 545.87512207 -549.92779297 545.75024414 -550.92089844 545.62158203 C-574.70704627 542.47112916 -594.85067529 533.68512356 -613 518 C-614.13888672 517.01580078 -614.13888672 517.01580078 -615.30078125 516.01171875 C-649.04488326 484.43156717 -650.92495654 430.73939276 -654.38305664 387.93530273 C-654.68670457 384.19729203 -655.0076055 380.46103786 -655.33007812 376.72460938 C-658.02648667 344.6758566 -658.18834191 312.64338941 -658.18530273 280.50512695 C-658.1852218 276.31302547 -658.19213236 272.12103404 -658.20581055 267.92895508 C-658.32250373 231.51520268 -657.66765961 195.13645531 -654.0625 158.875 C-653.88627894 157.03169889 -653.71050788 155.18835472 -653.53515625 153.3449707 C-653.04327101 148.22789209 -652.52824095 143.11344353 -652 138 C-651.8644873 136.68725098 -651.72897461 135.37450195 -651.58935547 134.02197266 C-648.7274642 107.01870397 -645.50791949 79.95744212 -632 56 C-631.45601562 55.01515625 -630.91203125 54.0303125 -630.3515625 53.015625 C-618.1263044 32.38177474 -596.58740824 15.12990737 -573.3828125 8.81640625 C-572.26648438 8.54699219 -571.15015625 8.27757812 -570 8 C-569.21407471 7.77820068 -568.42814941 7.55640137 -567.6184082 7.32788086 C-558.99890831 4.97996773 -550.33672767 3.81780915 -541.48803711 2.74731445 C-538.99254622 2.44418648 -536.49926869 2.12638457 -534.00585938 1.80664062 C-507.94494325 -1.46342571 -481.69728584 -2.56348345 -455.47924805 -3.80493164 C-450.99233615 -4.01741533 -446.50576581 -4.23634125 -442.01924896 -4.45698833 C-419.96876024 -5.53820525 -397.92454049 -6.3878175 -375.85360718 -6.90835571 C-372.42153073 -6.9899754 -368.98970156 -7.07778812 -365.55786133 -7.16870117 C-268.41349133 -9.68642862 -171.00232932 -8.58746272 0 0 Z " fill="#FFFEFE" transform="translate(854,325)"/>
<path d="M0 0 C3.73255129 1.49302052 6.82962441 2.95145089 10.26171875 4.94921875 C11.28458984 5.5421875 12.30746094 6.13515625 13.36132812 6.74609375 C14.45896484 7.38675781 15.55660156 8.02742188 16.6875 8.6875 C17.84940348 9.3623338 19.01151671 10.03680656 20.17382812 10.7109375 C22.5872404 12.11107089 24.9997446 13.51275019 27.41162109 14.91552734 C32.93267071 18.12491268 38.46701601 21.31125063 44 24.5 C46.16672909 25.7498918 48.33339556 26.99989215 50.5 28.25 C52.10875 29.178125 52.10875 29.178125 53.75 30.125 C141.5 80.75 141.5 80.75 144.7512207 82.62573242 C146.91378583 83.8733474 149.07638339 85.12090616 151.23901367 86.3684082 C156.71870371 89.52943449 162.19779358 92.69149309 167.67578125 95.85546875 C178.10724983 101.87938214 188.54308249 107.89534414 199 113.875 C200.32704956 114.6342981 200.32704956 114.6342981 201.6809082 115.40893555 C202.4874585 115.86953369 203.29400879 116.33013184 204.125 116.8046875 C205.18074219 117.40772705 205.18074219 117.40772705 206.2578125 118.02294922 C207.48829684 118.71302746 208.73816018 119.36908009 210 120 C208.70370192 123.88889425 207.3996439 124.166712 203.83984375 126.08203125 C202.74873291 126.67685303 201.65762207 127.2716748 200.53344727 127.88452148 C199.94830353 128.19815643 199.36315979 128.51179138 198.76028442 128.83493042 C195.6497832 130.50310979 192.55653855 132.20281817 189.4609375 133.8984375 C188.5132122 134.41599861 188.5132122 134.41599861 187.54634094 134.9440155 C181.65539291 138.16852197 175.85007287 141.53111118 170.0625 144.9375 C161.40969273 150.02038395 152.72010681 155.03384652 144 160 C135.23981096 164.98947947 126.50865742 170.02440374 117.8125 175.125 C108.56101362 180.54900285 99.22866865 185.81479153 89.86035156 191.03393555 C83.38273233 194.64848775 76.95577992 198.33219539 70.57568359 202.11572266 C64.30607205 205.83154525 58.00070819 209.48379148 51.6875 213.125 C50.59848389 213.75317627 49.50946777 214.38135254 48.38745117 215.02856445 C42.39497301 218.48070102 36.39508237 221.91936133 30.38671875 225.34375 C29.44190895 225.88248245 29.44190895 225.88248245 28.47801208 226.43209839 C25.43288407 228.16819473 22.38673129 229.90244215 19.33862305 231.63330078 C14.60802503 234.32732924 9.90526416 237.02450778 5.3203125 239.9609375 C2 242 2 242 0 242 C0 162.14 0 82.28 0 0 Z " fill="#FF0101" transform="translate(519,479)"/>
</svg>
